<svg width="1555" height="1492" viewBox="0 0 1555 1492" fill="none" xmlns="http://www.w3.org/2000/svg">
<g filter="url(#filter0_d_216_32)">
<ellipse cx="773.5" cy="742" rx="759.5" ry="728" fill="black"/>
<path d="M773.5 1475C1195.52 1475 1538 1147.02 1538 742C1538 336.978 1195.52 9 773.5 9C351.48 9 9 336.978 9 742C9 1147.02 351.48 1475 773.5 1475Z" stroke="white" stroke-width="10"/>
</g>
<path d="M954.365 1095V741.182H1056.96V1095H954.365ZM1005.66 691.858C986.809 691.858 971.464 686.378 959.626 675.417C947.789 664.456 941.87 650.864 941.87 634.642C941.87 618.42 947.789 604.828 959.626 593.868C971.464 582.907 986.809 577.426 1005.66 577.426C1024.51 577.426 1039.86 582.687 1051.7 593.21C1063.54 603.294 1069.45 616.447 1069.45 632.669C1069.45 649.768 1063.54 664.017 1051.7 675.417C1040.3 686.378 1024.95 691.858 1005.66 691.858Z" fill="white"/>
<path d="M688.031 1096V535.397H466.948V405.116H1069V535.397H847.921V1096H688.031Z" fill="white"/>
<defs>
<filter id="filter0_d_216_32" x="0" y="0" width="1555" height="1492" filterUnits="userSpaceOnUse" color-interpolation-filters="sRGB">
<feFlood flood-opacity="0" result="BackgroundImageFix"/>
<feColorMatrix in="SourceAlpha" type="matrix" values="0 0 0 0 0 0 0 0 0 0 0 0 0 0 0 0 0 0 127 0" result="hardAlpha"/>
<feMorphology radius="4" operator="dilate" in="SourceAlpha" result="effect1_dropShadow_216_32"/>
<feOffset dx="4" dy="4"/>
<feGaussianBlur stdDeviation="2"/>
<feComposite in2="hardAlpha" operator="out"/>
<feColorMatrix type="matrix" values="0 0 0 0 0 0 0 0 0 0 0 0 0 0 0 0 0 0 0.5 0"/>
<feBlend mode="normal" in2="BackgroundImageFix" result="effect1_dropShadow_216_32"/>
<feBlend mode="normal" in="SourceGraphic" in2="effect1_dropShadow_216_32" result="shape"/>
</filter>
</defs>
</svg>
